<svg width="16" height="16" viewBox="0 0 16 16" fill="none" xmlns="http://www.w3.org/2000/svg">
<g id="icon/alert-triangle">
<path id="Vector" d="M14.4876 12.0005L9.15426 2.66714C9.03797 2.46194 8.86933 2.29127 8.66555 2.17252C8.46176 2.05378 8.23012 1.99121 7.99426 1.99121C7.7584 1.99121 7.52677 2.05378 7.32298 2.17252C7.11919 2.29127 6.95055 2.46194 6.83426 2.66714L1.50093 12.0005C1.38338 12.204 1.32175 12.4351 1.32227 12.6701C1.32279 12.9052 1.38545 13.136 1.50389 13.339C1.62234 13.5421 1.79236 13.7102 1.99673 13.8264C2.20109 13.9425 2.43253 14.0026 2.6676 14.0005H13.3343C13.5682 14.0002 13.7979 13.9385 14.0005 13.8213C14.203 13.7042 14.3711 13.5359 14.4879 13.3332C14.6048 13.1306 14.6663 12.9007 14.6662 12.6668C14.6662 12.4329 14.6046 12.2031 14.4876 12.0005Z" stroke="#DC2626" stroke-width="2" stroke-linecap="round" stroke-linejoin="round"/>
<path id="Vector_2" d="M8 6V8.66667" stroke="#DC2626" stroke-width="2" stroke-linecap="round" stroke-linejoin="round"/>
<path id="Vector_3" d="M8 11.333H8.00667" stroke="#DC2626" stroke-width="2" stroke-linecap="round" stroke-linejoin="round"/>
</g>
</svg>
