<svg width="20" height="20" viewBox="0 0 20 20" fill="none" xmlns="http://www.w3.org/2000/svg">
<g id="icon/calendar-search">
<path id="Vector" d="M17.5 10.0002V5.00016C17.5 4.55814 17.3244 4.13421 17.0118 3.82165C16.6993 3.50909 16.2754 3.3335 15.8333 3.3335H4.16667C3.72464 3.3335 3.30072 3.50909 2.98816 3.82165C2.67559 4.13421 2.5 4.55814 2.5 5.00016V16.6668C2.5 17.5835 3.25 18.3335 4.16667 18.3335H10.4167" stroke="#6B7280" stroke-width="1.4" stroke-linecap="round" stroke-linejoin="round"/>
<path id="Vector_2" d="M13.334 1.6665V4.99984" stroke="#6B7280" stroke-width="1.4" stroke-linecap="round" stroke-linejoin="round"/>
<path id="Vector_3" d="M6.66602 1.6665V4.99984" stroke="#6B7280" stroke-width="1.4" stroke-linecap="round" stroke-linejoin="round"/>
<path id="Vector_4" d="M2.5 8.3335H17.5" stroke="#6B7280" stroke-width="1.4" stroke-linecap="round" stroke-linejoin="round"/>
<path id="Vector_5" d="M15 17.5C15.663 17.5 16.2989 17.2366 16.7678 16.7678C17.2366 16.2989 17.5 15.663 17.5 15C17.5 14.337 17.2366 13.7011 16.7678 13.2322C16.2989 12.7634 15.663 12.5 15 12.5C14.337 12.5 13.7011 12.7634 13.2322 13.2322C12.7634 13.7011 12.5 14.337 12.5 15C12.5 15.663 12.7634 16.2989 13.2322 16.7678C13.7011 17.2366 14.337 17.5 15 17.5Z" stroke="#6B7280" stroke-width="1.4" stroke-linecap="round" stroke-linejoin="round"/>
<path id="Vector_6" d="M18.334 18.3335L17.084 17.0835" stroke="#6B7280" stroke-width="1.4" stroke-linecap="round" stroke-linejoin="round"/>
</g>
</svg>
