<svg width="24" height="24" viewBox="0 0 24 24" fill="none" xmlns="http://www.w3.org/2000/svg">
<g id="Icon">
<path id="Rectangle 165" d="M7.32031 11.9326L4.17806 17.6842C4.00073 18.0088 4.21572 18.4229 4.57727 18.4532L6.82475 18.6415C6.97572 18.6542 7.11428 18.7387 7.20012 18.8705L8.47817 20.8333C8.68376 21.149 9.13065 21.1387 9.30798 20.8141L12.4502 15.0626" stroke="#1F2937" stroke-width="1.5"/>
<path id="Rectangle 166" d="M17.2939 12.0469L20.4138 17.7574C20.5908 18.0815 20.3768 18.4951 20.0159 18.5264L17.769 18.7208C17.619 18.7338 17.4814 18.8178 17.3957 18.9486L16.113 20.9077C15.9069 21.2224 15.4609 21.2115 15.2839 20.8874L12.164 15.1768" stroke="#1F2937" stroke-width="1.5"/>
<rect id="Rectangle 164" x="6.40723" y="2.75" width="11.7478" height="12.5" rx="5.87388" stroke="#1F2937" stroke-width="1.5"/>
<path id="Star 1" d="M11.6122 6.20742C11.8148 5.54838 12.7477 5.54838 12.9503 6.20742L13.185 6.97056C13.2753 7.26435 13.5467 7.46484 13.8541 7.46484H14.6921C15.3608 7.46484 15.6488 8.31282 15.1184 8.72007L14.3751 9.29078C14.1432 9.46884 14.0464 9.77226 14.1323 10.0517L14.4004 10.9235C14.6007 11.5753 13.8458 12.0997 13.305 11.6844L12.7075 11.2257C12.4561 11.0327 12.1064 11.0327 11.855 11.2257L11.2575 11.6844C10.7167 12.0997 9.96175 11.5753 10.1621 10.9235L10.4302 10.0517C10.5161 9.77226 10.4193 9.46884 10.1874 9.29078L9.44408 8.72007C8.91367 8.31282 9.20166 7.46484 9.87037 7.46484H10.7084C11.0158 7.46484 11.2872 7.26435 11.3775 6.97056L11.6122 6.20742Z" fill="#1F2937"/>
</g>
</svg>
