<svg width="44" height="44" viewBox="0 0 44 44" fill="none" xmlns="http://www.w3.org/2000/svg">
<g id="Group 1707478677">
<rect id="Rectangle 4902" x="0.5" y="0.5" width="43" height="43" rx="2.5" stroke="#D1D5DB"/>
<g id="Icon Education">
<path id="Vector 76" d="M35.6828 18.9902L35.6828 18.0545L33.8114 18.0545L33.8114 18.9902L35.6828 18.9902ZM33.8114 26.4056C33.8114 26.9224 34.2303 27.3413 34.7471 27.3413C35.2638 27.3413 35.6828 26.9224 35.6828 26.4056L33.8114 26.4056ZM33.8114 18.9902L33.8114 26.4056L35.6828 26.4056L35.6828 18.9902L33.8114 18.9902Z" fill="#9CA3AF"/>
<path id="Rectangle 165" d="M13.4932 20.4639V31.2467V31.2467C18.3083 35.6401 25.6781 35.6401 30.4932 31.2467V31.2467V20.4639" stroke="#9CA3AF" stroke-width="1.87138"/>
<path id="Rectangle 164" d="M19.0898 12.6152C20.9176 11.6378 23.0824 11.6378 24.9102 12.6152L35.5798 18.32L24.9102 24.0249C23.0824 25.0022 20.9176 25.0022 19.0898 24.0249L8.42023 18.32L19.0898 12.6152Z" stroke="#9CA3AF" stroke-width="1.87138"/>
</g>
</g>
</svg>
