<svg width="18" height="18" viewBox="0 0 18 18" fill="none" xmlns="http://www.w3.org/2000/svg">
<g id="Group 1707478783">
<path id="Vector" fill-rule="evenodd" clip-rule="evenodd" d="M4.1565 4H13.6335C14.1309 4 14.5576 4.33699 14.72 4.80609L9.46895 8.51255L9.46933 8.51345C9.29108 8.63921 9.09234 8.70179 8.89483 8.70179C8.70263 8.70179 8.50968 8.64213 8.33502 8.5234L8.32069 8.51255L3.06964 4.80609C3.23205 4.33691 3.65876 4 4.15613 4L4.1565 4ZM14.7902 5.53453V11.9546C14.7902 12.0769 14.7727 12.1948 14.7413 12.3063L11.0416 8.18094L14.7908 5.53442L14.7902 5.53453ZM14.403 12.867C14.1982 13.0609 13.9285 13.1788 13.6339 13.1788H4.15691C3.86235 13.1788 3.59266 13.0605 3.38783 12.867L7.2648 8.54438L7.98284 9.05114L8.00162 9.06319C8.27826 9.25374 8.58712 9.34875 8.89592 9.34875C9.21173 9.34875 9.52669 9.2494 9.80777 9.05113L9.80863 9.05073L9.80901 9.05113L10.527 8.54438L14.404 12.8669L14.403 12.867ZM3.04895 12.3063C3.01717 12.1948 3 12.0768 3 11.9546V5.5345L6.74923 8.18101L3.04954 12.3064L3.04895 12.3063Z" fill="#4B5563"/>
</g>
</svg>
