<svg width="27" height="30" viewBox="0 0 27 30" fill="none" xmlns="http://www.w3.org/2000/svg">
<path d="M24.4391 19.8883C23.954 19.6483 23.4089 19.6183 22.8988 19.8033L11.682 23.914L9.64161 22.2787L12.7971 21.1035C13.3372 20.9035 13.7523 20.4784 13.9323 19.9483C14.1324 19.3982 14.0723 18.7981 13.7673 18.298C13.4622 17.798 12.9572 17.4679 12.3771 17.3879L8.73146 16.8878C7.97633 16.7878 7.2112 16.9628 6.5761 17.3829L3.44057 19.4632H0.500084C0.225038 19.4632 0 19.6883 0 19.9633V26.8645C0 27.0845 0.145024 27.2795 0.355059 27.3446L8.35639 29.79C8.81147 29.93 9.28155 30 9.74663 30C10.4567 30 11.1619 29.84 11.812 29.5249L24.4241 23.4139C25.0992 23.0838 25.5343 22.3887 25.5343 21.6436C25.5343 21.4536 25.5043 21.2585 25.4443 21.0585C25.2792 20.5484 24.9242 20.1284 24.4391 19.8883ZM23.989 22.5188L11.3769 28.6298C10.5218 29.0448 9.5566 29.1199 8.65144 28.8398L1.00017 26.4994V20.4734H3.5906C3.69062 20.4734 3.78563 20.4434 3.86565 20.3884L7.13119 18.223C7.56126 17.938 8.08135 17.818 8.59643 17.883L12.242 18.3781C12.5221 18.4181 12.7621 18.5781 12.9072 18.8181C13.0522 19.0582 13.0822 19.3482 12.9822 19.6183C12.8922 19.8733 12.6971 20.0733 12.4371 20.1684L8.45641 21.6536C8.28638 21.7186 8.16636 21.8636 8.13636 22.0437C8.10635 22.2237 8.17637 22.3987 8.31639 22.5138L11.2669 24.8741C11.4069 24.9842 11.5869 25.0142 11.752 24.9542L23.2339 20.7485C23.4839 20.6584 23.749 20.6734 23.989 20.7885C24.229 20.9085 24.4041 21.1135 24.4841 21.3586C24.5141 21.4586 24.5291 21.5586 24.5291 21.6536C24.5341 22.0187 24.3191 22.3587 23.989 22.5188Z" fill="black"/>
<path d="M24.0136 2.96049H21.2981V1.52025C21.2981 0.680113 20.618 0 19.7779 0H15.2771C14.442 0 13.7569 0.680113 13.7569 1.52025V2.96549H11.0364C9.63617 2.96549 8.50098 4.10568 8.50098 5.50092V12.6271C8.50098 14.0273 9.64117 15.1625 11.0364 15.1625H24.0086C25.4088 15.1625 26.544 14.0223 26.544 12.6271V5.50092C26.554 4.10068 25.4138 2.96049 24.0136 2.96049ZM14.757 1.52025C14.757 1.23021 14.9921 1.00017 15.2771 1.00017H19.7779C20.0629 1.00017 20.2979 1.23021 20.2979 1.52025V2.96549H14.757V1.52025ZM11.0414 3.96066H24.0136C24.8587 3.96066 25.5488 4.65078 25.5488 5.49592V7.34122L19.4978 8.78646V8.57143C19.4978 8.01634 19.0427 7.56126 18.4876 7.56126H16.5623C16.0072 7.56126 15.5522 8.01634 15.5522 8.57143V8.78646L9.50114 7.34122V5.50092C9.50614 4.65078 10.1963 3.96066 11.0414 3.96066ZM18.5026 8.57643L18.4926 10.9868L16.5573 10.9768V8.57643C16.5573 8.57143 16.5623 8.56643 16.5673 8.56643L18.5026 8.57643ZM24.0136 14.1624H11.0414C10.1963 14.1624 9.50614 13.4722 9.50614 12.6271V8.3764L15.5572 9.82164V10.9818C15.5572 11.5369 16.0122 11.992 16.5673 11.992H18.4926C19.0477 11.992 19.5028 11.5369 19.5028 10.9818V9.82164L25.5538 8.3764V12.6271C25.5538 13.4722 24.8637 14.1624 24.0136 14.1624Z" fill="black"/>
</svg>
