<svg width="18" height="18" viewBox="0 0 18 18" fill="none" xmlns="http://www.w3.org/2000/svg">
<g id="Group 1707478784">
<g id="noun-web-1479535 1">
<path id="Vector" d="M9 3C5.7 3 3 5.7 3 9C3 12.3 5.7 15 9 15C12.3 15 15 12.3 15 9C15 5.7 12.3 3 9 3ZM13.18 5.92H11.76C11.54 5.24 11.26 4.64 10.92 4.18C11.82 4.54 12.62 5.14 13.18 5.92ZM11.4 9C11.4 9.84 11.3 10.62 11.16 11.28H6.84C6.7 10.62 6.6 9.84 6.6 9C6.6 8.16 6.7 7.38 6.84 6.72H11.14C11.3 7.38 11.4 8.16 11.4 9ZM9 3.8C9.72 3.8 10.46 4.58 10.92 5.92H7.08C7.54 4.58 8.28 3.8 9 3.8ZM7.08 4.16C6.74 4.62 6.46 5.22 6.24 5.9H4.82C5.38 5.14 6.18 4.54 7.08 4.16ZM4.32 11.28C4 10.6 3.8 9.82 3.8 9C3.8 8.18 4 7.4 4.32 6.72H6.02C5.88 7.42 5.8 8.18 5.8 9C5.8 9.82 5.88 10.58 6.04 11.28H4.32ZM4.82 12.08H6.24C6.46 12.76 6.74 13.36 7.08 13.82C6.18 13.46 5.38 12.86 4.82 12.08ZM9 14.2C8.28 14.2 7.54 13.42 7.08 12.08H10.92C10.46 13.42 9.72 14.2 9 14.2ZM10.92 13.84C11.26 13.38 11.54 12.78 11.76 12.1H13.18C12.62 12.86 11.82 13.46 10.92 13.84ZM11.96 11.28C12.12 10.58 12.2 9.82 12.2 9C12.2 8.18 12.12 7.42 11.96 6.72H13.66C14 7.4 14.2 8.18 14.2 9C14.2 9.82 14 10.6 13.68 11.28H11.96Z" fill="#4B5563"/>
</g>
</g>
</svg>
