<svg width="24" height="27" viewBox="0 0 24 27" fill="none" xmlns="http://www.w3.org/2000/svg">
<g id="Icon Education">
<path id="Vector 76" d="M20.9102 11.4551L20.9102 10.7051L19.4102 10.7051L19.4102 11.4551L20.9102 11.4551ZM19.4102 16.4551C19.4102 16.8693 19.7459 17.2051 20.1602 17.2051C20.5744 17.2051 20.9102 16.8693 20.9102 16.4551L19.4102 16.4551ZM19.4102 11.4551L19.4102 16.4551L20.9102 16.4551L20.9102 11.4551L19.4102 11.4551Z" fill="#1F2937"/>
<path id="Rectangle 165" d="M5.83203 12.4551V19.7257V19.7257C9.07874 22.688 14.048 22.688 17.2947 19.7257V19.7257V12.4551" stroke="#1F2937" stroke-width="1.5"/>
<path id="Rectangle 164" d="M9.22983 7.49233C10.6949 6.70897 12.4301 6.70897 13.8952 7.49234L20.4633 11.0042L13.8952 14.516C12.4301 15.2994 10.6949 15.2994 9.22983 14.516L2.66175 11.0042L9.22983 7.49233Z" stroke="#1F2937" stroke-width="1.5"/>
</g>
</svg>
