<svg width="108" height="24" viewBox="0 0 108 24" fill="none" xmlns="http://www.w3.org/2000/svg">
<g id="Group 9">
<g id="openhire">
<path d="M6.85888 18.9985C5.87152 18.9985 4.95701 18.8366 4.11533 18.5129C3.28174 18.1892 2.55741 17.7441 1.94234 17.1775C1.33536 16.611 0.857865 15.9474 0.509863 15.1866C0.169954 14.4178 0 13.5883 0 12.698C0 11.743 0.169954 10.8649 0.509863 10.0637C0.857865 9.25443 1.33536 8.55842 1.94234 7.97572C2.54932 7.39302 3.2696 6.93981 4.10319 6.61609C4.94487 6.28427 5.85938 6.11836 6.84674 6.11836C7.83409 6.11836 8.74861 6.28022 9.59029 6.60395C10.432 6.91958 11.1563 7.3566 11.7633 7.91502C12.3784 8.47344 12.8599 9.13303 13.2079 9.89378C13.5559 10.6464 13.7299 11.4598 13.7299 12.3338C13.7299 13.2484 13.5559 14.1103 13.2079 14.9196C12.868 15.7289 12.3905 16.437 11.7754 17.044C11.1684 17.6429 10.4441 18.1204 9.60243 18.4765C8.76075 18.8245 7.84623 18.9985 6.85888 18.9985ZM7.2959 17.481C7.63581 17.481 7.95144 17.3718 8.24279 17.1533C8.53414 16.9267 8.78503 16.6272 8.99545 16.2549C9.21396 15.8746 9.37987 15.4375 9.49317 14.9439C9.61457 14.4502 9.67527 13.9363 9.67527 13.4021C9.67527 12.609 9.61457 11.8644 9.49317 11.1684C9.37987 10.4643 9.18968 9.84927 8.92261 9.32322C8.65554 8.79717 8.30754 8.38037 7.8786 8.07284C7.45776 7.7653 6.93981 7.61153 6.32473 7.61153C6.02529 7.61153 5.73799 7.72079 5.46282 7.9393C5.18766 8.15781 4.94487 8.45321 4.73445 8.82549C4.52403 9.18968 4.35407 9.61457 4.22458 10.1002C4.10319 10.5776 4.04249 11.0835 4.04249 11.6176C4.04249 12.4188 4.11533 13.1755 4.261 13.8877C4.41477 14.5999 4.62924 15.2231 4.9044 15.7572C5.18766 16.2833 5.52757 16.7041 5.92413 17.0197C6.32878 17.3273 6.78604 17.481 7.2959 17.481Z" fill="#4338CA"/>
<path d="M16.5099 7.46586L19.1684 6.08194H20.2974V7.34446C20.7264 6.98027 21.22 6.68488 21.7785 6.45827C22.345 6.23166 23.0005 6.11836 23.7451 6.11836C24.5382 6.11836 25.2585 6.27618 25.9059 6.59181C26.5534 6.89934 27.1077 7.32018 27.569 7.85432C28.0303 8.38037 28.3864 8.99545 28.6373 9.69954C28.8882 10.4036 29.0137 11.1523 29.0137 11.9454C29.0137 12.9651 28.8639 13.9079 28.5645 14.7739C28.265 15.6318 27.8402 16.3763 27.2898 17.0076C26.7395 17.6308 26.0718 18.1204 25.2868 18.4765C24.5018 18.8245 23.6196 18.9985 22.6404 18.9985C22.1386 18.9985 21.7056 18.9783 21.3414 18.9378C20.9853 18.8973 20.6373 18.8083 20.2974 18.6707V24H16.5099V7.46586ZM20.2974 15.3202C20.2974 15.6196 20.3541 15.9029 20.4674 16.17C20.5807 16.4289 20.7385 16.6555 20.9408 16.8498C21.1431 17.044 21.3859 17.1978 21.6692 17.3111C21.9605 17.4244 22.2843 17.481 22.6404 17.481C22.956 17.481 23.2554 17.3758 23.5387 17.1654C23.83 16.9469 24.0809 16.6474 24.2914 16.2671C24.5099 15.8786 24.6798 15.4213 24.8012 14.8953C24.9307 14.3692 24.9954 13.7946 24.9954 13.1715C24.9954 12.3703 24.9388 11.6662 24.8255 11.0592C24.7122 10.4522 24.5544 9.94638 24.352 9.54173C24.1497 9.13708 23.9069 8.83359 23.6237 8.63126C23.3485 8.42084 23.0491 8.31563 22.7253 8.31563C22.4906 8.31563 22.26 8.3561 22.0334 8.43703C21.8068 8.51796 21.5883 8.63126 21.3778 8.77693C21.1755 8.91452 20.9813 9.07638 20.7951 9.26252C20.6171 9.44866 20.4512 9.64694 20.2974 9.85736V15.3202Z" fill="#4338CA"/>
<path d="M37.4871 19.047C36.605 19.047 35.7754 18.8852 34.9985 18.5615C34.2215 18.2296 33.5458 17.7886 32.9712 17.2382C32.3966 16.6798 31.9393 16.0364 31.5994 15.308C31.2676 14.5716 31.1017 13.7946 31.1017 12.9772C31.1017 11.998 31.2554 11.0916 31.563 10.258C31.8705 9.41629 32.3075 8.68791 32.8741 8.07284C33.4406 7.45776 34.1163 6.98027 34.9014 6.64036C35.6945 6.29236 36.5766 6.11836 37.5478 6.11836C38.4138 6.11836 39.2069 6.25594 39.9272 6.53111C40.6474 6.80627 41.2625 7.1826 41.7724 7.66009C42.2903 8.13758 42.6909 8.70005 42.9742 9.3475C43.2575 9.99494 43.3991 10.6869 43.3991 11.4234H34.7921C34.8245 12.1113 34.9256 12.7668 35.0956 13.39C35.2736 14.0132 35.5083 14.5635 35.7997 15.041C36.091 15.5104 36.431 15.8867 36.8194 16.17C37.216 16.4451 37.653 16.5827 38.1305 16.5827C38.5432 16.5827 38.9479 16.5139 39.3445 16.3763C39.7491 16.2307 40.1214 16.0364 40.4613 15.7936C40.8012 15.5427 41.0966 15.2554 41.3475 14.9317C41.5984 14.5999 41.7805 14.2438 41.8938 13.8634L43.8118 14.1669C43.6176 14.8386 43.306 15.4699 42.8771 16.0607C42.4562 16.6515 41.9585 17.1694 41.3839 17.6146C40.8174 18.0597 40.1983 18.4117 39.5266 18.6707C38.8548 18.9216 38.175 19.047 37.4871 19.047ZM39.0774 10.1366C39.045 9.77238 38.9641 9.44057 38.8346 9.14112C38.7132 8.83359 38.5554 8.57056 38.3612 8.35205C38.1669 8.13354 37.9403 7.96763 37.6813 7.85432C37.4224 7.73293 37.1431 7.67223 36.8437 7.67223C36.609 7.67223 36.3784 7.73293 36.1517 7.85432C35.9251 7.96763 35.7188 8.13354 35.5326 8.35205C35.3546 8.56247 35.2008 8.82145 35.0713 9.12898C34.9499 9.42843 34.869 9.76429 34.8285 10.1366H39.0774Z" fill="#4338CA"/>
<path d="M54.2276 10.2822C54.2276 9.96662 54.1912 9.68741 54.1184 9.44461C54.0536 9.19373 53.9605 8.98736 53.8391 8.82549C53.7258 8.65554 53.5923 8.5301 53.4385 8.44917C53.2929 8.36014 53.1391 8.31563 52.9772 8.31563C52.8154 8.31563 52.6292 8.348 52.4188 8.41275C52.2084 8.47749 51.9858 8.57056 51.7511 8.69196C51.5245 8.80526 51.2898 8.94689 51.047 9.11684C50.8042 9.2868 50.5736 9.47699 50.3551 9.68741V18.7678H46.5675V7.46586L49.2261 6.08194H50.3551V7.34446C50.9378 6.92362 51.561 6.61609 52.2246 6.42185C52.8882 6.21952 53.5478 6.11836 54.2033 6.11836C54.7132 6.11836 55.1947 6.21952 55.648 6.42185C56.1093 6.61609 56.5099 6.88316 56.8498 7.22307C57.1978 7.56297 57.4729 7.96358 57.6753 8.42489C57.8776 8.8781 57.9788 9.36368 57.9788 9.88164V18.7678H54.2276V10.2822Z" fill="#4338CA"/>
<path d="M69.22 10.2822C69.22 9.64289 69.1148 9.15731 68.9044 8.82549C68.7021 8.48558 68.435 8.31563 68.1032 8.31563C67.9575 8.31563 67.7714 8.348 67.5448 8.41275C67.3263 8.47749 67.0916 8.57056 66.8407 8.69196C66.5898 8.81335 66.3349 8.95498 66.0759 9.11684C65.825 9.27871 65.5903 9.45675 65.3718 9.65099V18.7678H61.5599V1.38392L64.2428 0H65.3718V7.34446C65.9464 6.92362 66.5857 6.61204 67.2898 6.40971C68.002 6.19929 68.698 6.09408 69.3778 6.09408C69.8796 6.09408 70.349 6.19525 70.786 6.39757C71.2312 6.59181 71.6156 6.86292 71.9393 7.21093C72.2711 7.55083 72.5301 7.95144 72.7162 8.41275C72.9105 8.87405 73.0076 9.36368 73.0076 9.88164V18.7678H69.22V10.2822Z" fill="#4338CA"/>
<path d="M76.783 7.46586L79.4294 6.08194H80.5584V18.7678H76.783V7.46586ZM76.6252 2.00303C76.6252 1.75215 76.6778 1.5134 76.783 1.2868C76.8882 1.06019 77.0339 0.865959 77.22 0.704097C77.4062 0.542236 77.6206 0.412747 77.8634 0.31563C78.1062 0.218513 78.3692 0.169954 78.6525 0.169954C78.9358 0.169954 79.1988 0.218513 79.4416 0.31563C79.6925 0.412747 79.9069 0.542236 80.085 0.704097C80.2711 0.865959 80.4168 1.06019 80.522 1.2868C80.6272 1.5134 80.6798 1.75215 80.6798 2.00303C80.6798 2.25392 80.6272 2.49267 80.522 2.71927C80.4168 2.93778 80.2711 3.12797 80.085 3.28983C79.9069 3.45169 79.6925 3.58118 79.4416 3.6783C79.1988 3.77542 78.9358 3.82398 78.6525 3.82398C78.3692 3.82398 78.1062 3.77542 77.8634 3.6783C77.6206 3.58118 77.4062 3.45169 77.22 3.28983C77.0339 3.12797 76.8882 2.93778 76.783 2.71927C76.6778 2.49267 76.6252 2.25392 76.6252 2.00303Z" fill="#4338CA"/>
<path d="M92.3703 8.94689C92.2003 8.80121 92.0425 8.67577 91.8968 8.57056C91.7592 8.46535 91.6217 8.38037 91.4841 8.31563C91.3465 8.25089 91.2008 8.20637 91.047 8.18209C90.9014 8.14972 90.7355 8.13354 90.5493 8.13354C90.2903 8.13354 90.0354 8.17805 89.7845 8.26707C89.5336 8.348 89.2989 8.46535 89.0804 8.61912C88.8619 8.7648 88.6636 8.9388 88.4856 9.14112C88.3156 9.33536 88.1821 9.54578 88.085 9.77238V18.7678H84.3217V7.46586L86.956 6.08194L88.085 7.2959C88.4977 6.86697 88.955 6.52302 89.4568 6.26404C89.9666 6.00506 90.5008 5.87557 91.0592 5.87557C91.6014 5.87557 92.091 5.98887 92.5281 6.21548C92.9651 6.43399 93.3455 6.67678 93.6692 6.94385L92.3703 8.94689Z" fill="#4338CA"/>
<path d="M100.856 19.047C99.9737 19.047 99.1442 18.8852 98.3672 18.5615C97.5903 18.2296 96.9145 17.7886 96.3399 17.2382C95.7653 16.6798 95.308 16.0364 94.9681 15.308C94.6363 14.5716 94.4704 13.7946 94.4704 12.9772C94.4704 11.998 94.6242 11.0916 94.9317 10.258C95.2393 9.41629 95.6763 8.68791 96.2428 8.07284C96.8093 7.45776 97.4851 6.98027 98.2701 6.64036C99.0632 6.29236 99.9454 6.11836 100.917 6.11836C101.783 6.11836 102.576 6.25594 103.296 6.53111C104.016 6.80627 104.631 7.1826 105.141 7.66009C105.659 8.13758 106.06 8.70005 106.343 9.3475C106.626 9.99494 106.768 10.6869 106.768 11.4234H98.1609C98.1932 12.1113 98.2944 12.7668 98.4643 13.39C98.6424 14.0132 98.8771 14.5635 99.1684 15.041C99.4598 15.5104 99.7997 15.8867 100.188 16.17C100.585 16.4451 101.022 16.5827 101.499 16.5827C101.912 16.5827 102.317 16.5139 102.713 16.3763C103.118 16.2307 103.49 16.0364 103.83 15.7936C104.17 15.5427 104.465 15.2554 104.716 14.9317C104.967 14.5999 105.149 14.2438 105.263 13.8634L107.181 14.1669C106.986 14.8386 106.675 15.4699 106.246 16.0607C105.825 16.6515 105.327 17.1694 104.753 17.6146C104.186 18.0597 103.567 18.4117 102.895 18.6707C102.224 18.9216 101.544 19.047 100.856 19.047ZM102.446 10.1366C102.414 9.77238 102.333 9.44057 102.203 9.14112C102.082 8.83359 101.924 8.57056 101.73 8.35205C101.536 8.13354 101.309 7.96763 101.05 7.85432C100.791 7.73293 100.512 7.67223 100.212 7.67223C99.9777 7.67223 99.7471 7.73293 99.5205 7.85432C99.2939 7.96763 99.0875 8.13354 98.9014 8.35205C98.7233 8.56247 98.5695 8.82145 98.4401 9.12898C98.3187 9.42843 98.2377 9.76429 98.1973 10.1366H102.446Z" fill="#4338CA"/>
</g>
</g>
</svg>
