<svg width="18" height="18" viewBox="0 0 18 18" fill="none" xmlns="http://www.w3.org/2000/svg">
<g id="Group 1707478785">
<g id="Group">
<path id="Vector" d="M7.06438 5.34647C7.14319 5.26618 7.18746 5.15751 7.18746 5.04418C7.18746 4.93085 7.14319 4.8221 7.06438 4.7419L5.48029 3.12596C5.4133 3.05721 5.32522 3.01371 5.2306 3.00272C5.13599 2.99181 5.04053 3.01394 4.95997 3.06562C4.63915 3.26971 4.33092 3.49365 4.03711 3.73609L6.33503 6.07507L7.06438 5.34647Z" fill="#4B5563"/>
<path id="Vector_2" d="M13.9351 12.1846C13.9857 12.1031 14.0075 12.0066 13.9969 11.9109C13.9863 11.8153 13.944 11.7261 13.8768 11.6581L12.2872 10.04C12.2085 9.95943 12.1014 9.91406 11.9897 9.91406C11.878 9.91406 11.7708 9.95943 11.6921 10.04L10.9727 10.781L13.2718 13.1166H13.2718C13.5119 12.8203 13.7335 12.5091 13.9351 12.1846L13.9351 12.1846Z" fill="#4B5563"/>
<path id="Vector_3" d="M10.5619 11.1961C9.81497 11.2755 8.42229 10.8251 7.36075 9.74334C6.29922 8.66161 5.85478 7.2491 5.93066 6.49139C5.95706 6.46123 5.98898 6.42545 6.02635 6.38631L3.71193 4.03516C3.35443 4.38492 3.06292 4.77608 3.0211 5.15266C2.60858 8.75324 8.33983 14.5755 11.8841 14.1564C12.2515 14.1128 12.6366 13.8211 12.9842 13.4557L10.6653 11.0989C10.6257 11.1385 10.5912 11.1708 10.5619 11.1962L10.5619 11.1961Z" fill="#4B5563"/>
</g>
</g>
</svg>
