<svg width="24" height="24" viewBox="0 0 24 24" fill="none" xmlns="http://www.w3.org/2000/svg">
<g id="Group 1707478690">
<circle id="Ellipse 1166" cx="12" cy="12" r="12" fill="#E5E7EB"/>
<g id="noun-quotes-953503 1">
<path id="Vector" fill-rule="evenodd" clip-rule="evenodd" d="M14.1783 10.3333C15.4617 10.3333 16.5 11.3833 16.5 12.6667C16.5 13.95 15.45 15 14.1667 15C12.8833 15 11.8333 13.95 11.8333 12.6667C11.8333 10.0883 13.9217 8 16.5 8C16.5 8 14.9717 8.57167 14.1783 10.3333ZM10.6667 12.6667C10.6667 13.95 9.61667 15 8.33333 15C7.05 15 6 13.95 6 12.6667C6 10.0883 8.08833 8 10.6667 8C10.6667 8 9.13833 8.57167 8.345 10.3333C9.62833 10.3333 10.6667 11.3833 10.6667 12.6667Z" fill="#6B7280"/>
</g>
</g>
</svg>
