<svg width="27" height="30" viewBox="0 0 27 30" fill="none" xmlns="http://www.w3.org/2000/svg">
<mask id="path-1-inside-1_352_8450" fill="white">
<path d="M25.6484 30H0.46875C0.208984 30 0 29.791 0 29.5312V0.46875C0 0.208984 0.208984 0 0.46875 0H25.6445C25.9043 0 26.1133 0.208984 26.1133 0.46875V9.71094C26.1133 17.1387 26.1152 26.127 26.1152 29.5312C26.1152 29.6562 26.0664 29.7754 25.9785 29.8633C25.8906 29.9512 25.7715 30 25.6484 30ZM0.9375 29.0625H25.1777C25.1777 25.3574 25.1777 16.8203 25.1758 9.71094V0.9375H0.9375V29.0625Z"/>
</mask>
<path d="M25.6484 30H0.46875C0.208984 30 0 29.791 0 29.5312V0.46875C0 0.208984 0.208984 0 0.46875 0H25.6445C25.9043 0 26.1133 0.208984 26.1133 0.46875V9.71094C26.1133 17.1387 26.1152 26.127 26.1152 29.5312C26.1152 29.6562 26.0664 29.7754 25.9785 29.8633C25.8906 29.9512 25.7715 30 25.6484 30ZM0.9375 29.0625H25.1777C25.1777 25.3574 25.1777 16.8203 25.1758 9.71094V0.9375H0.9375V29.0625Z" fill="#1F2937"/>
<path d="M0.9375 29.0625H-0.2625V30.2625H0.9375V29.0625ZM25.1777 29.0625V30.2625H26.3777V29.0625H25.1777ZM25.1758 9.71094H23.9758V9.71127L25.1758 9.71094ZM25.1758 0.9375H26.3758V-0.2625H25.1758V0.9375ZM0.9375 0.9375V-0.2625H-0.2625V0.9375H0.9375ZM25.6484 28.8H0.46875V31.2H25.6484V28.8ZM0.46875 28.8C0.871726 28.8 1.2 29.1283 1.2 29.5312H-1.2C-1.2 30.4538 -0.453758 31.2 0.46875 31.2V28.8ZM1.2 29.5312V0.46875H-1.2V29.5312H1.2ZM1.2 0.46875C1.2 0.871726 0.871726 1.2 0.46875 1.2V-1.2C-0.453758 -1.2 -1.2 -0.453757 -1.2 0.46875H1.2ZM0.46875 1.2H25.6445V-1.2H0.46875V1.2ZM25.6445 1.2C25.2416 1.2 24.9133 0.871726 24.9133 0.46875H27.3133C27.3133 -0.453758 26.567 -1.2 25.6445 -1.2V1.2ZM24.9133 0.46875V9.71094H27.3133V0.46875H24.9133ZM24.9133 9.71094C24.9133 13.4249 24.9138 17.529 24.9143 21.13C24.9148 24.7312 24.9152 27.8292 24.9152 29.5312H27.3152C27.3152 27.829 27.3148 24.7307 27.3143 21.1297C27.3138 17.5287 27.3133 13.4247 27.3133 9.71094H24.9133ZM24.9152 29.5312C24.9152 29.3424 24.9898 29.155 25.13 29.0148L26.827 30.7118C27.1431 30.3958 27.3152 29.9701 27.3152 29.5312H24.9152ZM25.13 29.0148C25.2684 28.8764 25.455 28.8 25.6484 28.8V31.2C26.088 31.2 26.5129 31.026 26.827 30.7118L25.13 29.0148ZM0.9375 30.2625H25.1777V27.8625H0.9375V30.2625ZM26.3777 29.0625C26.3777 25.3574 26.3777 16.8202 26.3758 9.71061L23.9758 9.71127C23.9777 16.8205 23.9777 25.3574 23.9777 29.0625H26.3777ZM26.3758 9.71094V0.9375H23.9758V9.71094H26.3758ZM25.1758 -0.2625H0.9375V2.1375H25.1758V-0.2625ZM-0.2625 0.9375V29.0625H2.1375V0.9375H-0.2625Z" fill="#1F2937" mask="url(#path-1-inside-1_352_8450)"/>
<mask id="path-3-inside-2_352_8450" fill="white">
<path d="M22.002 15.2051H4.10742C3.84766 15.2051 3.63867 14.9961 3.63867 14.7363C3.63867 14.4766 3.84766 14.2676 4.10742 14.2676H22.002C22.2617 14.2676 22.4707 14.4766 22.4707 14.7363C22.4707 14.9961 22.2598 15.2051 22.002 15.2051Z"/>
</mask>
<path d="M22.002 15.2051H4.10742C3.84766 15.2051 3.63867 14.9961 3.63867 14.7363C3.63867 14.4766 3.84766 14.2676 4.10742 14.2676H22.002C22.2617 14.2676 22.4707 14.4766 22.4707 14.7363C22.4707 14.9961 22.2598 15.2051 22.002 15.2051Z" fill="#1F2937"/>
<path d="M22.002 14.0051H4.10742V16.4051H22.002V14.0051ZM4.10742 14.0051C4.5104 14.0051 4.83867 14.3334 4.83867 14.7363H2.43867C2.43867 15.6588 3.18491 16.4051 4.10742 16.4051V14.0051ZM4.83867 14.7363C4.83867 15.1393 4.5104 15.4676 4.10742 15.4676V13.0676C3.18491 13.0676 2.43867 13.8138 2.43867 14.7363H4.83867ZM4.10742 15.4676H22.002V13.0676H4.10742V15.4676ZM22.002 15.4676C21.599 15.4676 21.2707 15.1393 21.2707 14.7363H23.6707C23.6707 13.8138 22.9245 13.0676 22.002 13.0676V15.4676ZM21.2707 14.7363C21.2707 14.3301 21.6003 14.0051 22.002 14.0051V16.4051C22.9193 16.4051 23.6707 15.6621 23.6707 14.7363H21.2707Z" fill="#1F2937" mask="url(#path-3-inside-2_352_8450)"/>
<mask id="path-5-inside-3_352_8450" fill="white">
<path d="M9.86719 18.7402H4.10742C3.84766 18.7402 3.63867 18.5312 3.63867 18.2715C3.63867 18.0117 3.84766 17.8027 4.10742 17.8027H9.86719C10.127 17.8027 10.3359 18.0117 10.3359 18.2715C10.3359 18.5312 10.127 18.7402 9.86719 18.7402Z"/>
</mask>
<path d="M9.86719 18.7402H4.10742C3.84766 18.7402 3.63867 18.5312 3.63867 18.2715C3.63867 18.0117 3.84766 17.8027 4.10742 17.8027H9.86719C10.127 17.8027 10.3359 18.0117 10.3359 18.2715C10.3359 18.5312 10.127 18.7402 9.86719 18.7402Z" fill="#1F2937"/>
<path d="M9.86719 17.5402H4.10742V19.9402H9.86719V17.5402ZM4.10742 17.5402C4.5104 17.5402 4.83867 17.8685 4.83867 18.2715H2.43867C2.43867 19.194 3.18491 19.9402 4.10742 19.9402V17.5402ZM4.83867 18.2715C4.83867 18.6745 4.5104 19.0027 4.10742 19.0027V16.6027C3.18491 16.6027 2.43867 17.349 2.43867 18.2715H4.83867ZM4.10742 19.0027H9.86719V16.6027H4.10742V19.0027ZM9.86719 19.0027C9.46421 19.0027 9.13594 18.6745 9.13594 18.2715H11.5359C11.5359 17.349 10.7897 16.6027 9.86719 16.6027V19.0027ZM9.13594 18.2715C9.13594 17.8685 9.46421 17.5402 9.86719 17.5402V19.9402C10.7897 19.9402 11.5359 19.194 11.5359 18.2715H9.13594Z" fill="#1F2937" mask="url(#path-5-inside-3_352_8450)"/>
<mask id="path-7-inside-4_352_8450" fill="white">
<path d="M22.002 18.7402H11.4141C11.1543 18.7402 10.9453 18.5312 10.9453 18.2715C10.9453 18.0117 11.1543 17.8027 11.4141 17.8027H22.002C22.2617 17.8027 22.4707 18.0117 22.4707 18.2715C22.4707 18.5312 22.2598 18.7402 22.002 18.7402Z"/>
</mask>
<path d="M22.002 18.7402H11.4141C11.1543 18.7402 10.9453 18.5312 10.9453 18.2715C10.9453 18.0117 11.1543 17.8027 11.4141 17.8027H22.002C22.2617 17.8027 22.4707 18.0117 22.4707 18.2715C22.4707 18.5312 22.2598 18.7402 22.002 18.7402Z" fill="#1F2937"/>
<path d="M22.002 17.5402H11.4141V19.9402H22.002V17.5402ZM11.4141 17.5402C11.817 17.5402 12.1453 17.8685 12.1453 18.2715H9.74531C9.74531 19.194 10.4916 19.9402 11.4141 19.9402V17.5402ZM12.1453 18.2715C12.1453 18.6745 11.817 19.0027 11.4141 19.0027V16.6027C10.4916 16.6027 9.74531 17.349 9.74531 18.2715H12.1453ZM11.4141 19.0027H22.002V16.6027H11.4141V19.0027ZM22.002 19.0027C21.599 19.0027 21.2707 18.6745 21.2707 18.2715H23.6707C23.6707 17.349 22.9245 16.6027 22.002 16.6027V19.0027ZM21.2707 18.2715C21.2707 17.8653 21.6003 17.5402 22.002 17.5402V19.9402C22.9193 19.9402 23.6707 19.1972 23.6707 18.2715H21.2707Z" fill="#1F2937" mask="url(#path-7-inside-4_352_8450)"/>
<mask id="path-9-inside-5_352_8450" fill="white">
<path d="M8.04883 22.2773H4.10742C3.84766 22.2773 3.63867 22.0684 3.63867 21.8086C3.63867 21.5488 3.84766 21.3398 4.10742 21.3398H8.04883C8.30859 21.3398 8.51758 21.5488 8.51758 21.8086C8.51758 22.0684 8.30664 22.2773 8.04883 22.2773Z"/>
</mask>
<path d="M8.04883 22.2773H4.10742C3.84766 22.2773 3.63867 22.0684 3.63867 21.8086C3.63867 21.5488 3.84766 21.3398 4.10742 21.3398H8.04883C8.30859 21.3398 8.51758 21.5488 8.51758 21.8086C8.51758 22.0684 8.30664 22.2773 8.04883 22.2773Z" fill="#1F2937"/>
<path d="M8.04883 21.0773H4.10742V23.4773H8.04883V21.0773ZM4.10742 21.0773C4.5104 21.0773 4.83867 21.4056 4.83867 21.8086H2.43867C2.43867 22.7311 3.18491 23.4773 4.10742 23.4773V21.0773ZM4.83867 21.8086C4.83867 22.2116 4.5104 22.5398 4.10742 22.5398V20.1398C3.18491 20.1398 2.43867 20.8861 2.43867 21.8086H4.83867ZM4.10742 22.5398H8.04883V20.1398H4.10742V22.5398ZM8.04883 22.5398C7.64585 22.5398 7.31758 22.2116 7.31758 21.8086H9.71758C9.71758 20.8861 8.97133 20.1398 8.04883 20.1398V22.5398ZM7.31758 21.8086C7.31758 21.4024 7.64716 21.0773 8.04883 21.0773V23.4773C8.96612 23.4773 9.71758 22.7344 9.71758 21.8086H7.31758Z" fill="#1F2937" mask="url(#path-9-inside-5_352_8450)"/>
<mask id="path-11-inside-6_352_8450" fill="white">
<path d="M22.002 22.2773H9.77734C9.51758 22.2773 9.30859 22.0684 9.30859 21.8086C9.30859 21.5488 9.51758 21.3398 9.77734 21.3398H22.002C22.2617 21.3398 22.4707 21.5488 22.4707 21.8086C22.4707 22.0684 22.2598 22.2773 22.002 22.2773Z"/>
</mask>
<path d="M22.002 22.2773H9.77734C9.51758 22.2773 9.30859 22.0684 9.30859 21.8086C9.30859 21.5488 9.51758 21.3398 9.77734 21.3398H22.002C22.2617 21.3398 22.4707 21.5488 22.4707 21.8086C22.4707 22.0684 22.2598 22.2773 22.002 22.2773Z" fill="#1F2937"/>
<path d="M22.002 21.0773H9.77734V23.4773H22.002V21.0773ZM9.77734 21.0773C10.1803 21.0773 10.5086 21.4056 10.5086 21.8086H8.10859C8.10859 22.7311 8.85484 23.4773 9.77734 23.4773V21.0773ZM10.5086 21.8086C10.5086 22.2116 10.1803 22.5398 9.77734 22.5398V20.1398C8.85484 20.1398 8.10859 20.8861 8.10859 21.8086H10.5086ZM9.77734 22.5398H22.002V20.1398H9.77734V22.5398ZM22.002 22.5398C21.599 22.5398 21.2707 22.2116 21.2707 21.8086H23.6707C23.6707 20.8861 22.9245 20.1398 22.002 20.1398V22.5398ZM21.2707 21.8086C21.2707 21.4024 21.6003 21.0773 22.002 21.0773V23.4773C22.9192 23.4773 23.6707 22.7344 23.6707 21.8086H21.2707Z" fill="#1F2937" mask="url(#path-11-inside-6_352_8450)"/>
<mask id="path-13-inside-7_352_8450" fill="white">
<path d="M14.8398 25.8125H4.10742C3.84766 25.8125 3.63867 25.6035 3.63867 25.3438C3.63867 25.084 3.84766 24.875 4.10742 24.875H14.8398C15.0996 24.875 15.3086 25.084 15.3086 25.3438C15.3086 25.6035 15.0977 25.8125 14.8398 25.8125Z"/>
</mask>
<path d="M14.8398 25.8125H4.10742C3.84766 25.8125 3.63867 25.6035 3.63867 25.3438C3.63867 25.084 3.84766 24.875 4.10742 24.875H14.8398C15.0996 24.875 15.3086 25.084 15.3086 25.3438C15.3086 25.6035 15.0977 25.8125 14.8398 25.8125Z" fill="#1F2937"/>
<path d="M14.8398 24.6125H4.10742V27.0125H14.8398V24.6125ZM4.10742 24.6125C4.5104 24.6125 4.83867 24.9408 4.83867 25.3438H2.43867C2.43867 26.2663 3.18492 27.0125 4.10742 27.0125V24.6125ZM4.83867 25.3438C4.83867 25.7467 4.5104 26.075 4.10742 26.075V23.675C3.18492 23.675 2.43867 24.4212 2.43867 25.3438H4.83867ZM4.10742 26.075H14.8398V23.675H4.10742V26.075ZM14.8398 26.075C14.4369 26.075 14.1086 25.7467 14.1086 25.3438H16.5086C16.5086 24.4212 15.7624 23.675 14.8398 23.675V26.075ZM14.1086 25.3438C14.1086 24.9375 14.4382 24.6125 14.8398 24.6125V27.0125C15.7571 27.0125 16.5086 26.2695 16.5086 25.3438H14.1086Z" fill="#1F2937" mask="url(#path-13-inside-7_352_8450)"/>
<mask id="path-15-inside-8_352_8450" fill="white">
<path d="M22.002 25.8125H16.5742C16.3145 25.8125 16.1055 25.6035 16.1055 25.3438C16.1055 25.084 16.3145 24.875 16.5742 24.875H22.002C22.2617 24.875 22.4707 25.084 22.4707 25.3438C22.4707 25.6035 22.2598 25.8125 22.002 25.8125Z"/>
</mask>
<path d="M22.002 25.8125H16.5742C16.3145 25.8125 16.1055 25.6035 16.1055 25.3438C16.1055 25.084 16.3145 24.875 16.5742 24.875H22.002C22.2617 24.875 22.4707 25.084 22.4707 25.3438C22.4707 25.6035 22.2598 25.8125 22.002 25.8125Z" fill="#1F2937"/>
<path d="M22.002 24.6125H16.5742V27.0125H22.002V24.6125ZM16.5742 24.6125C16.9772 24.6125 17.3055 24.9408 17.3055 25.3438H14.9055C14.9055 26.2663 15.6517 27.0125 16.5742 27.0125V24.6125ZM17.3055 25.3438C17.3055 25.7467 16.9772 26.075 16.5742 26.075V23.675C15.6517 23.675 14.9055 24.4212 14.9055 25.3438H17.3055ZM16.5742 26.075H22.002V23.675H16.5742V26.075ZM22.002 26.075C21.599 26.075 21.2707 25.7467 21.2707 25.3438H23.6707C23.6707 24.4212 22.9245 23.675 22.002 23.675V26.075ZM21.2707 25.3438C21.2707 24.9375 21.6003 24.6125 22.002 24.6125V27.0125C22.9192 27.0125 23.6707 26.2695 23.6707 25.3438H21.2707Z" fill="#1F2937" mask="url(#path-15-inside-8_352_8450)"/>
<mask id="path-17-inside-9_352_8450" fill="white">
<path d="M22.0098 5.41797H13.6035C13.3438 5.41797 13.1348 5.20898 13.1348 4.94922C13.1348 4.68945 13.3438 4.48047 13.6035 4.48047H22.0098C22.2695 4.48047 22.4785 4.68945 22.4785 4.94922C22.4785 5.20898 22.2695 5.41797 22.0098 5.41797Z"/>
</mask>
<path d="M22.0098 5.41797H13.6035C13.3438 5.41797 13.1348 5.20898 13.1348 4.94922C13.1348 4.68945 13.3438 4.48047 13.6035 4.48047H22.0098C22.2695 4.48047 22.4785 4.68945 22.4785 4.94922C22.4785 5.20898 22.2695 5.41797 22.0098 5.41797Z" fill="#1F2937"/>
<path d="M22.0098 4.21797H13.6035V6.61797H22.0098V4.21797ZM13.6035 4.21797C14.0065 4.21797 14.3348 4.54624 14.3348 4.94922H11.9348C11.9348 5.87173 12.681 6.61797 13.6035 6.61797V4.21797ZM14.3348 4.94922C14.3348 5.3522 14.0065 5.68047 13.6035 5.68047V3.28047C12.681 3.28047 11.9348 4.02671 11.9348 4.94922H14.3348ZM13.6035 5.68047H22.0098V3.28047H13.6035V5.68047ZM22.0098 5.68047C21.6068 5.68047 21.2785 5.3522 21.2785 4.94922H23.6785C23.6785 4.02671 22.9323 3.28047 22.0098 3.28047V5.68047ZM21.2785 4.94922C21.2785 4.54624 21.6068 4.21797 22.0098 4.21797V6.61797C22.9323 6.61797 23.6785 5.87173 23.6785 4.94922H21.2785Z" fill="#1F2937" mask="url(#path-17-inside-9_352_8450)"/>
<mask id="path-19-inside-10_352_8450" fill="white">
<path d="M22.0098 8.54102H13.6035C13.3438 8.54102 13.1348 8.33203 13.1348 8.07227C13.1348 7.8125 13.3438 7.60352 13.6035 7.60352H22.0098C22.2695 7.60352 22.4785 7.8125 22.4785 8.07227C22.4785 8.33203 22.2695 8.54102 22.0098 8.54102Z"/>
</mask>
<path d="M22.0098 8.54102H13.6035C13.3438 8.54102 13.1348 8.33203 13.1348 8.07227C13.1348 7.8125 13.3438 7.60352 13.6035 7.60352H22.0098C22.2695 7.60352 22.4785 7.8125 22.4785 8.07227C22.4785 8.33203 22.2695 8.54102 22.0098 8.54102Z" fill="#1F2937"/>
<path d="M22.0098 7.34102H13.6035V9.74102H22.0098V7.34102ZM13.6035 7.34102C14.0065 7.34102 14.3348 7.66929 14.3348 8.07227H11.9348C11.9348 8.99477 12.681 9.74102 13.6035 9.74102V7.34102ZM14.3348 8.07227C14.3348 8.47524 14.0065 8.80352 13.6035 8.80352V6.40352C12.681 6.40352 11.9348 7.14976 11.9348 8.07227H14.3348ZM13.6035 8.80352H22.0098V6.40352H13.6035V8.80352ZM22.0098 8.80352C21.6068 8.80352 21.2785 8.47524 21.2785 8.07227H23.6785C23.6785 7.14976 22.9323 6.40352 22.0098 6.40352V8.80352ZM21.2785 8.07227C21.2785 7.66929 21.6068 7.34102 22.0098 7.34102V9.74102C22.9323 9.74102 23.6785 8.99477 23.6785 8.07227H21.2785Z" fill="#1F2937" mask="url(#path-19-inside-10_352_8450)"/>
<mask id="path-21-inside-11_352_8450" fill="white">
<path d="M22.0098 11.6641H13.6035C13.3438 11.6641 13.1348 11.4551 13.1348 11.1953C13.1348 10.9355 13.3438 10.7266 13.6035 10.7266H22.0098C22.2695 10.7266 22.4785 10.9355 22.4785 11.1953C22.4785 11.4551 22.2695 11.6641 22.0098 11.6641Z"/>
</mask>
<path d="M22.0098 11.6641H13.6035C13.3438 11.6641 13.1348 11.4551 13.1348 11.1953C13.1348 10.9355 13.3438 10.7266 13.6035 10.7266H22.0098C22.2695 10.7266 22.4785 10.9355 22.4785 11.1953C22.4785 11.4551 22.2695 11.6641 22.0098 11.6641Z" fill="#1F2937"/>
<path d="M22.0098 10.4641H13.6035V12.8641H22.0098V10.4641ZM13.6035 10.4641C14.0065 10.4641 14.3348 10.7923 14.3348 11.1953H11.9348C11.9348 12.1178 12.681 12.8641 13.6035 12.8641V10.4641ZM14.3348 11.1953C14.3348 11.5983 14.0065 11.9266 13.6035 11.9266V9.52656C12.681 9.52656 11.9348 10.2728 11.9348 11.1953H14.3348ZM13.6035 11.9266H22.0098V9.52656H13.6035V11.9266ZM22.0098 11.9266C21.6068 11.9266 21.2785 11.5983 21.2785 11.1953H23.6785C23.6785 10.2728 22.9323 9.52656 22.0098 9.52656V11.9266ZM21.2785 11.1953C21.2785 10.7923 21.6068 10.4641 22.0098 10.4641V12.8641C22.9323 12.8641 23.6785 12.1178 23.6785 11.1953H21.2785Z" fill="#1F2937" mask="url(#path-21-inside-11_352_8450)"/>
<mask id="path-23-inside-12_352_8450" fill="white">
<path d="M10.6641 12.166H4.38281C4.12305 12.166 3.91406 11.957 3.91406 11.6973V11.1055C3.91406 9.11523 5.5332 7.49609 7.52344 7.49609C9.51367 7.49609 11.1328 9.11523 11.1328 11.1055V11.6973C11.1328 11.9551 10.9238 12.166 10.6641 12.166ZM4.85156 11.2285H10.1953V11.1055C10.1953 9.63281 8.99609 8.43359 7.52344 8.43359C6.05078 8.43359 4.85156 9.63281 4.85156 11.1055V11.2285Z"/>
</mask>
<path d="M10.6641 12.166H4.38281C4.12305 12.166 3.91406 11.957 3.91406 11.6973V11.1055C3.91406 9.11523 5.5332 7.49609 7.52344 7.49609C9.51367 7.49609 11.1328 9.11523 11.1328 11.1055V11.6973C11.1328 11.9551 10.9238 12.166 10.6641 12.166ZM4.85156 11.2285H10.1953V11.1055C10.1953 9.63281 8.99609 8.43359 7.52344 8.43359C6.05078 8.43359 4.85156 9.63281 4.85156 11.1055V11.2285Z" fill="#1F2937"/>
<path d="M11.1328 11.6973H12.3328H11.1328ZM4.85156 11.2285H3.65156V12.4285H4.85156V11.2285ZM10.1953 11.2285V12.4285H11.3953V11.2285H10.1953ZM10.6641 10.966H4.38281V13.366H10.6641V10.966ZM4.38281 10.966C4.78579 10.966 5.11406 11.2943 5.11406 11.6973H2.71406C2.71406 12.6198 3.46031 13.366 4.38281 13.366V10.966ZM5.11406 11.6973V11.1055H2.71406V11.6973H5.11406ZM5.11406 11.1055C5.11406 9.77798 6.19594 8.69609 7.52344 8.69609V6.29609C4.87046 6.29609 2.71406 8.45249 2.71406 11.1055H5.11406ZM7.52344 8.69609C8.85093 8.69609 9.93281 9.77798 9.93281 11.1055H12.3328C12.3328 8.45249 10.1764 6.29609 7.52344 6.29609V8.69609ZM9.93281 11.1055V11.6973H12.3328V11.1055H9.93281ZM9.93281 11.6973C9.93281 11.2956 10.2578 10.966 10.6641 10.966V13.366C11.5898 13.366 12.3328 12.6146 12.3328 11.6973H9.93281ZM4.85156 12.4285H10.1953V10.0285H4.85156V12.4285ZM11.3953 11.2285V11.1055H8.99531V11.2285H11.3953ZM11.3953 11.1055C11.3953 8.97007 9.65884 7.23359 7.52344 7.23359V9.63359C8.33335 9.63359 8.99531 10.2956 8.99531 11.1055H11.3953ZM7.52344 7.23359C5.38804 7.23359 3.65156 8.97007 3.65156 11.1055H6.05156C6.05156 10.2956 6.71352 9.63359 7.52344 9.63359V7.23359ZM3.65156 11.1055V11.2285H6.05156V11.1055H3.65156Z" fill="#1F2937" mask="url(#path-23-inside-12_352_8450)"/>
<mask id="path-25-inside-13_352_8450" fill="white">
<path d="M7.52246 8.43359C6.29395 8.43359 5.2959 7.43555 5.2959 6.20703C5.2959 4.97852 6.29395 3.98047 7.52246 3.98047C8.75098 3.98047 9.74902 4.97852 9.74902 6.20703C9.74902 7.43359 8.75098 8.43359 7.52246 8.43359ZM7.52246 4.91797C6.81152 4.91797 6.2334 5.49609 6.2334 6.20703C6.2334 6.91797 6.81152 7.49609 7.52246 7.49609C8.2334 7.49609 8.81152 6.91797 8.81152 6.20703C8.81152 5.49609 8.2334 4.91797 7.52246 4.91797Z"/>
</mask>
<path d="M7.52246 8.43359C6.29395 8.43359 5.2959 7.43555 5.2959 6.20703C5.2959 4.97852 6.29395 3.98047 7.52246 3.98047C8.75098 3.98047 9.74902 4.97852 9.74902 6.20703C9.74902 7.43359 8.75098 8.43359 7.52246 8.43359ZM7.52246 4.91797C6.81152 4.91797 6.2334 5.49609 6.2334 6.20703C6.2334 6.91797 6.81152 7.49609 7.52246 7.49609C8.2334 7.49609 8.81152 6.91797 8.81152 6.20703C8.81152 5.49609 8.2334 4.91797 7.52246 4.91797Z" fill="#1F2937"/>
<path d="M7.52246 7.23359C6.95669 7.23359 6.4959 6.7728 6.4959 6.20703H4.0959C4.0959 8.09829 5.6312 9.63359 7.52246 9.63359V7.23359ZM6.4959 6.20703C6.4959 5.64126 6.95669 5.18047 7.52246 5.18047V2.78047C5.6312 2.78047 4.0959 4.31577 4.0959 6.20703H6.4959ZM7.52246 5.18047C8.08824 5.18047 8.54902 5.64126 8.54902 6.20703H10.949C10.949 4.31577 9.41372 2.78047 7.52246 2.78047V5.18047ZM8.54902 6.20703C8.54902 6.77154 8.08755 7.23359 7.52246 7.23359V9.63359C9.4144 9.63359 10.949 8.09565 10.949 6.20703H8.54902ZM7.52246 3.71797C6.14878 3.71797 5.0334 4.83335 5.0334 6.20703H7.4334C7.4334 6.15884 7.47427 6.11797 7.52246 6.11797V3.71797ZM5.0334 6.20703C5.0334 7.58071 6.14878 8.69609 7.52246 8.69609V6.29609C7.47427 6.29609 7.4334 6.25523 7.4334 6.20703H5.0334ZM7.52246 8.69609C8.89614 8.69609 10.0115 7.58071 10.0115 6.20703H7.61152C7.61152 6.25523 7.57066 6.29609 7.52246 6.29609V8.69609ZM10.0115 6.20703C10.0115 4.83335 8.89614 3.71797 7.52246 3.71797V6.11797C7.57066 6.11797 7.61152 6.15883 7.61152 6.20703H10.0115Z" fill="#1F2937" mask="url(#path-25-inside-13_352_8450)"/>
</svg>
