<svg width="26" height="24" viewBox="0 0 26 24" fill="none" xmlns="http://www.w3.org/2000/svg">
<g id="noun-skills-5604898 1">
<g id="Group">
<path id="Vector" d="M18.5228 18.6285C18.3376 16.9879 17.2791 15.6119 15.8238 14.9769C16.3265 14.3153 16.6176 13.4686 16.6176 12.5689C16.6441 10.3462 14.8183 8.54688 12.5956 8.54688C10.3728 8.54688 8.54705 10.3462 8.54705 12.5954C8.54705 13.4951 8.83812 14.3418 9.34087 15.0033C7.91199 15.6384 6.85355 16.9879 6.64187 18.6549L6.24495 21.8831C6.16557 22.6241 6.64187 23.312 7.35631 23.4708C9.02334 23.8148 10.7698 24 12.5426 24C14.3155 24 16.0619 23.8148 17.729 23.4708C18.4434 23.312 18.9462 22.6241 18.8403 21.8831L18.5228 18.6285ZM12.5956 9.76407C14.1303 9.76407 15.4004 11.0077 15.4004 12.5689C15.4004 14.1037 14.1567 15.3738 12.5956 15.3738C11.0344 15.3738 9.79071 14.1301 9.79071 12.5689C9.79071 11.0342 11.0608 9.76407 12.5956 9.76407ZM17.5437 22.2271C14.3684 22.9151 10.8227 22.9151 7.67384 22.2271C7.568 22.2007 7.51507 22.1213 7.54153 22.0155L7.93845 18.7872C8.09721 17.3848 9.12919 16.2999 10.4258 15.9559C11.0608 16.3793 11.8282 16.6174 12.6485 16.6174C13.4688 16.6174 14.2361 16.3793 14.8712 15.9559C16.1678 16.2999 17.1997 17.3848 17.3585 18.7872L17.7554 22.0155C17.7025 22.0948 17.6231 22.2007 17.5437 22.2271Z" fill="black"/>
<path id="Vector_2" d="M11.9862 4.28666V6.48291C11.9862 6.8269 12.2508 7.09151 12.5948 7.09151C12.9388 7.09151 13.2034 6.8269 13.2034 6.48291V4.28666C14.1031 4.02205 14.7646 3.1753 14.7646 2.19625C14.7646 0.979052 13.7855 0 12.5683 0C11.3511 0 10.3721 0.979052 10.3721 2.19625C10.3985 3.1753 11.0601 4.02205 11.9862 4.28666ZM12.5948 1.24366C13.124 1.24366 13.5474 1.66703 13.5474 2.19625C13.5474 2.72547 13.124 3.14884 12.5948 3.14884C12.0656 3.14884 11.6422 2.72547 11.6422 2.19625C11.6422 1.66703 12.0656 1.24366 12.5948 1.24366Z" fill="black"/>
<path id="Vector_3" d="M5.26656 7.43635C5.63702 7.43635 6.00747 7.33051 6.29854 7.17175L7.83327 8.70648C7.96557 8.83878 8.12434 8.8917 8.2831 8.8917C8.44187 8.8917 8.60063 8.83878 8.73294 8.70648C8.97108 8.46833 8.97108 8.07141 8.73294 7.83327L7.19821 6.29854C7.35697 5.98101 7.46282 5.63702 7.46282 5.26656C7.46282 4.04936 6.48376 3.07031 5.26656 3.07031C4.04936 3.07031 3.07031 4.0229 3.07031 5.2401C3.07031 6.4573 4.04936 7.43635 5.26656 7.43635ZM5.26656 4.28751C5.79578 4.28751 6.21915 4.71089 6.21915 5.2401C6.21915 5.76932 5.79578 6.19269 5.26656 6.19269C4.73735 6.19269 4.31397 5.76932 4.31397 5.2401C4.31397 4.71089 4.73735 4.28751 5.26656 4.28751Z" fill="black"/>
<path id="Vector_4" d="M22.9685 10.3721C21.9894 10.3721 21.1427 11.0336 20.8781 11.9333H18.6818C18.3379 11.9333 18.0732 12.1979 18.0732 12.5419C18.0732 12.8859 18.3379 13.1505 18.6818 13.1505H20.8781C21.1427 14.0501 21.9894 14.7117 22.9685 14.7117C24.1857 14.7117 25.1648 13.7326 25.1648 12.5154C25.1648 11.2982 24.1857 10.3721 22.9685 10.3721ZM22.9685 13.5209C22.4393 13.5209 22.0159 13.0975 22.0159 12.5683C22.0159 12.0391 22.4393 11.6157 22.9685 11.6157C23.4977 11.6157 23.9211 12.0391 23.9211 12.5683C23.9211 13.0975 23.4977 13.5209 22.9685 13.5209Z" fill="black"/>
<path id="Vector_5" d="M6.48291 13.2032C6.8269 13.2032 7.09151 12.9386 7.09151 12.5946C7.09151 12.2506 6.8269 11.986 6.48291 11.986H4.28666C4.02205 11.0863 3.1753 10.4248 2.19625 10.4248C0.979052 10.4248 0 11.4039 0 12.6211C0 13.8383 0.979052 14.8173 2.19625 14.8173C3.1753 14.8173 4.02205 14.1558 4.28666 13.2561H6.48291V13.2032ZM2.22271 13.5207C1.69349 13.5207 1.27012 13.0974 1.27012 12.5681C1.27012 12.0389 1.69349 11.6155 2.22271 11.6155C2.75193 11.6155 3.1753 12.0389 3.1753 12.5681C3.1753 13.0974 2.75193 13.5207 2.22271 13.5207Z" fill="black"/>
<path id="Vector_6" d="M16.9077 8.89082C17.0665 8.89082 17.2253 8.8379 17.3576 8.70559L18.8923 7.17086C19.2098 7.32963 19.5538 7.43547 19.9243 7.43547C21.1415 7.43547 22.1205 6.45642 22.1205 5.23922C22.1205 4.02202 21.1415 3.04297 19.9243 3.04297C18.7071 3.04297 17.728 4.02202 17.728 5.23922C17.728 5.60967 17.8339 5.98012 17.9926 6.27119L16.4579 7.80592C16.2198 8.04407 16.2198 8.44098 16.4579 8.67913C16.5902 8.81144 16.749 8.89082 16.9077 8.89082ZM19.9243 4.28663C20.4535 4.28663 20.8769 4.71 20.8769 5.23922C20.8769 5.76844 20.4535 6.19181 19.9243 6.19181C19.3951 6.19181 18.9717 5.76844 18.9717 5.23922C18.9717 4.71 19.4215 4.28663 19.9243 4.28663Z" fill="black"/>
</g>
</g>
</svg>
