<svg width="26" height="26" viewBox="0 0 26 26" fill="none" xmlns="http://www.w3.org/2000/svg">
<path d="M14.2786 2.96508C15.7494 2.96508 17.0817 3.56179 18.0455 4.52561C19.0094 5.48942 19.6061 6.82209 19.6061 8.29293C19.6061 9.76239 19.009 11.0947 18.0445 12.0589C17.0817 13.0237 15.7494 13.6204 14.2786 13.6204C12.8077 13.6204 11.4754 13.0241 10.5116 12.0603C9.54778 11.0964 8.95141 9.76413 8.95141 8.29293C8.95141 6.82209 9.54778 5.48942 10.5116 4.52561C11.4754 3.56179 12.8077 2.96508 14.2786 2.96508ZM4.31309 0C5.50373 0 6.58235 0.483304 7.36262 1.26357C8.14288 2.04383 8.62584 3.12246 8.62584 4.31309C8.62584 5.50373 8.14288 6.58235 7.36262 7.36262C6.58235 8.14288 5.50373 8.62584 4.31309 8.62584C3.12246 8.62584 2.04348 8.14288 1.26322 7.36262C0.482955 6.58235 0 5.50373 0 4.31309C0 3.12246 0.482955 2.04349 1.26322 1.26322C2.04348 0.482955 3.12246 0 4.31309 0ZM6.73589 1.89029C6.11615 1.27055 5.25911 0.886348 4.31309 0.886348C3.36707 0.886348 2.50969 1.2702 1.88994 1.88994C1.2702 2.50969 0.886348 3.36707 0.886348 4.31309C0.886348 5.25911 1.2702 6.11615 1.88994 6.73589C2.50969 7.35564 3.36707 7.73949 4.31309 7.73949C5.25911 7.73949 6.11615 7.35564 6.73589 6.73589C7.35564 6.11615 7.73949 5.25911 7.73949 4.31309C7.73949 3.36707 7.35564 2.51004 6.73589 1.89029ZM3.86992 2.6053C3.86992 2.36069 4.06848 2.16213 4.31309 2.16213C4.55771 2.16213 4.75627 2.36069 4.75627 2.6053V3.86992H6.02053C6.26515 3.86992 6.46371 4.06848 6.46371 4.31309C6.46371 4.55771 6.26515 4.75627 6.02053 4.75627H4.75627V6.02053C4.75627 6.26515 4.55771 6.46371 4.31309 6.46371C4.06848 6.46371 3.86992 6.26515 3.86992 6.02053V4.75627H2.6053C2.36069 4.75627 2.16213 4.55771 2.16213 4.31309C2.16213 4.06848 2.36069 3.86992 2.6053 3.86992H3.86992V2.6053ZM17.4188 5.15233C16.6152 4.34869 15.5048 3.85143 14.2786 3.85143C13.0523 3.85143 11.942 4.34869 11.1383 5.15233C10.3347 5.95598 9.83776 7.0667 9.83776 8.29293C9.83776 9.51951 10.3347 10.6299 11.1383 11.4335C11.942 12.2372 13.0523 12.7341 14.2786 12.7341C15.5048 12.7341 16.6152 12.2368 17.4188 11.4332C18.2228 10.6309 18.7197 9.52021 18.7197 8.29293C18.7197 7.0667 18.2225 5.95598 17.4188 5.15233ZM4.16932 25.1137H24.3871V22.7526C24.3871 20.7751 23.5772 18.9762 22.2742 17.6732C20.9701 16.3692 19.172 15.5599 17.1944 15.5599H11.362C9.38447 15.5599 7.58595 16.3692 6.28225 17.6729C4.97855 18.9766 4.16932 20.7751 4.16932 22.7526V25.1137ZM24.8303 26H3.72615C3.48153 26 3.28298 25.8014 3.28298 25.5568V22.7526C3.28298 20.5305 4.19166 18.51 5.65553 17.0461C7.1194 15.5823 9.13985 14.6736 11.362 14.6736H17.1944C19.4166 14.6736 21.437 15.5826 22.9009 17.0465C24.3641 18.5097 25.2735 20.5305 25.2735 22.7526V25.5568C25.2735 25.8014 25.0749 26 24.8303 26Z" fill="#1F2937"/>
</svg>
